<mxfile host="app.diagrams.net" modified="2023-04-03T14:47:48.103Z" agent="Mozilla/5.0 (Macintosh; Intel Mac OS X 10_15_7) AppleWebKit/605.1.15 (KHTML, like Gecko) Version/16.4 Safari/605.1.15" etag="F5DaADPnFBwa9HgUBThg" version="21.1.2" type="github" pages="2">
  <diagram id="C5RBs43oDa-KdzZeNtuy" name="Page-1">
    <mxGraphModel dx="1434" dy="779" grid="1" gridSize="10" guides="1" tooltips="1" connect="1" arrows="1" fold="1" page="1" pageScale="1" pageWidth="827" pageHeight="1169" math="0" shadow="0">
      <root>
        <mxCell id="WIyWlLk6GJQsqaUBKTNV-0" />
        <mxCell id="WIyWlLk6GJQsqaUBKTNV-1" parent="WIyWlLk6GJQsqaUBKTNV-0" />
        <mxCell id="Dru4B1Q1C2Fwj1NcRqwJ-20" value="" style="edgeStyle=orthogonalEdgeStyle;rounded=0;orthogonalLoop=1;jettySize=auto;html=1;" edge="1" parent="WIyWlLk6GJQsqaUBKTNV-1" source="Dru4B1Q1C2Fwj1NcRqwJ-18" target="Dru4B1Q1C2Fwj1NcRqwJ-19">
          <mxGeometry relative="1" as="geometry" />
        </mxCell>
        <mxCell id="Dru4B1Q1C2Fwj1NcRqwJ-18" value="Admin&lt;br&gt;" style="shape=umlActor;verticalLabelPosition=bottom;verticalAlign=top;html=1;outlineConnect=0;" vertex="1" parent="WIyWlLk6GJQsqaUBKTNV-1">
          <mxGeometry x="140" y="320" width="30" height="60" as="geometry" />
        </mxCell>
        <mxCell id="Dru4B1Q1C2Fwj1NcRqwJ-22" value="" style="edgeStyle=orthogonalEdgeStyle;rounded=0;orthogonalLoop=1;jettySize=auto;html=1;" edge="1" parent="WIyWlLk6GJQsqaUBKTNV-1" source="Dru4B1Q1C2Fwj1NcRqwJ-19" target="Dru4B1Q1C2Fwj1NcRqwJ-21">
          <mxGeometry relative="1" as="geometry" />
        </mxCell>
        <mxCell id="Dru4B1Q1C2Fwj1NcRqwJ-19" value="Member" style="shape=umlActor;verticalLabelPosition=bottom;verticalAlign=top;html=1;outlineConnect=0;" vertex="1" parent="WIyWlLk6GJQsqaUBKTNV-1">
          <mxGeometry x="399" y="320" width="30" height="60" as="geometry" />
        </mxCell>
        <mxCell id="Dru4B1Q1C2Fwj1NcRqwJ-21" value="Unregistered&lt;br style=&quot;border-color: var(--border-color);&quot;&gt;User&amp;nbsp;" style="shape=umlActor;verticalLabelPosition=bottom;verticalAlign=top;html=1;outlineConnect=0;" vertex="1" parent="WIyWlLk6GJQsqaUBKTNV-1">
          <mxGeometry x="399" y="70" width="30" height="60" as="geometry" />
        </mxCell>
      </root>
    </mxGraphModel>
  </diagram>
  <diagram id="deDgp59ABMM3oFz0R-Dp" name="Page-2">
    <mxGraphModel dx="1434" dy="779" grid="1" gridSize="10" guides="1" tooltips="1" connect="1" arrows="1" fold="1" page="1" pageScale="1" pageWidth="850" pageHeight="1100" math="0" shadow="0">
      <root>
        <mxCell id="0" />
        <mxCell id="1" parent="0" />
        <mxCell id="ASLL1hva2Ejm9o2ZKZ-l-7" value="" style="edgeStyle=orthogonalEdgeStyle;rounded=0;orthogonalLoop=1;jettySize=auto;html=1;" edge="1" parent="1" source="ASLL1hva2Ejm9o2ZKZ-l-1" target="ASLL1hva2Ejm9o2ZKZ-l-4">
          <mxGeometry relative="1" as="geometry" />
        </mxCell>
        <mxCell id="ASLL1hva2Ejm9o2ZKZ-l-1" value="Unregistered&lt;br style=&quot;border-color: var(--border-color);&quot;&gt;User&amp;nbsp;" style="shape=umlActor;verticalLabelPosition=bottom;verticalAlign=top;html=1;outlineConnect=0;" vertex="1" parent="1">
          <mxGeometry x="330" y="50" width="30" height="60" as="geometry" />
        </mxCell>
        <mxCell id="ASLL1hva2Ejm9o2ZKZ-l-9" value="" style="edgeStyle=orthogonalEdgeStyle;rounded=0;orthogonalLoop=1;jettySize=auto;html=1;" edge="1" parent="1" source="ASLL1hva2Ejm9o2ZKZ-l-4" target="ASLL1hva2Ejm9o2ZKZ-l-8">
          <mxGeometry relative="1" as="geometry" />
        </mxCell>
        <mxCell id="ASLL1hva2Ejm9o2ZKZ-l-4" value="View all of list Donates" style="ellipse;whiteSpace=wrap;html=1;" vertex="1" parent="1">
          <mxGeometry x="275" y="190" width="140" height="70" as="geometry" />
        </mxCell>
        <mxCell id="ASLL1hva2Ejm9o2ZKZ-l-11" value="" style="edgeStyle=orthogonalEdgeStyle;rounded=0;orthogonalLoop=1;jettySize=auto;html=1;" edge="1" parent="1" source="ASLL1hva2Ejm9o2ZKZ-l-8" target="ASLL1hva2Ejm9o2ZKZ-l-10">
          <mxGeometry relative="1" as="geometry" />
        </mxCell>
        <mxCell id="ASLL1hva2Ejm9o2ZKZ-l-8" value="View a Donate" style="ellipse;whiteSpace=wrap;html=1;" vertex="1" parent="1">
          <mxGeometry x="495" y="190" width="140" height="70" as="geometry" />
        </mxCell>
        <mxCell id="ASLL1hva2Ejm9o2ZKZ-l-13" value="" style="edgeStyle=orthogonalEdgeStyle;rounded=0;orthogonalLoop=1;jettySize=auto;html=1;" edge="1" parent="1" source="ASLL1hva2Ejm9o2ZKZ-l-10" target="ASLL1hva2Ejm9o2ZKZ-l-12">
          <mxGeometry relative="1" as="geometry" />
        </mxCell>
        <mxCell id="ASLL1hva2Ejm9o2ZKZ-l-10" value="Donate&lt;br&gt;" style="ellipse;whiteSpace=wrap;html=1;" vertex="1" parent="1">
          <mxGeometry x="495" y="340" width="140" height="70" as="geometry" />
        </mxCell>
        <mxCell id="ASLL1hva2Ejm9o2ZKZ-l-12" value="Donate bank account" style="ellipse;whiteSpace=wrap;html=1;" vertex="1" parent="1">
          <mxGeometry x="275" y="340" width="140" height="70" as="geometry" />
        </mxCell>
      </root>
    </mxGraphModel>
  </diagram>
</mxfile>
